Coordinates
version=1
nRows=13
nColumns=34
inDegrees=yes

Units are S.I. units (second, meters, Newtons, ...)
If the header above contains a line with 'inDegrees', this indicates whether rotational values are in degrees (yes) or radians (no).

endheader
time	pelvis_tilt	pelvis_list	pelvis_rotation	pelvis_tx	pelvis_ty	pelvis_tz	hip_flexion_r	hip_adduction_r	hip_rotation_r	knee_angle_r	ankle_angle_r	subtalar_angle_r	mtp_angle_r	hip_flexion_l	hip_adduction_l	hip_rotation_l	knee_angle_l	ankle_angle_l	subtalar_angle_l	mtp_angle_l	lumbar_extension	lumbar_bending	lumbar_rotation	arm_flex_r	arm_add_r	arm_rot_r	elbow_flex_r	pro_sup_r	arm_flex_l	arm_add_l	arm_rot_l	elbow_flex_l	pro_sup_l
      0.00000000	      1.57064698	     -0.23980129	     -1.42705294	     -0.08359712	      1.27137636	     -0.04755698	     -4.41261068	      2.64253058	    -14.58043429	      0.94491126	     -5.91282161	     -2.05505170	      0.00000000	     -1.04789831	     -1.22639640	    -12.14640894	      3.60059780	      9.41157419	      3.10788887	      0.00000000	     -0.76521805	      1.55211515	      1.34341281	     -4.71749604	     -8.71947645	     17.43450759	     24.32810523	     69.95225479	      0.89840928	     -8.72443751	     32.39960032	     21.49617005	     61.95843416
      0.01666670	      0.51230316	      0.70887393	     -1.12350309	     -0.08448107	      1.26903253	     -0.04877691	     -3.19908619	      2.02055203	    -17.73244976	      0.31779931	     -7.82495964	     -0.31105694	      0.00000000	     -0.74634978	     -0.05192113	    -13.85599279	      1.94854084	      8.32820887	      5.68128536	      0.00000000	      1.00424879	      0.70437842	      1.09041467	     -4.60561676	     -8.33969172	     16.45503341	     23.43211707	     69.83797390	      0.74993712	     -8.57224247	     32.25543979	     21.65981794	     62.15756312
      0.03333330	     -0.13036942	      1.20206261	     -1.20040957	     -0.08547623	      1.26906954	     -0.04830722	     -2.35984595	      1.90457082	    -19.87463576	      0.00000000	     -7.86050194	     -1.51744073	      0.00000000	     -0.18157513	      0.60769265	    -14.76503265	      1.10928642	      8.45804267	      5.92366819	      0.00000000	      1.62681454	      0.07148140	      1.34490601	     -4.57725232	     -8.14862615	     16.25785928	     23.52449316	     69.83000081	      0.82239268	     -8.65734935	     32.22663141	     21.61563047	     62.22180946
      0.05000000	     -1.45012848	      1.17054505	     -0.76575294	     -0.08581153	      1.26926313	     -0.04896338	     -0.85114497	      1.93972255	    -20.53637758	      0.00000000	     -9.77235924	     -2.90234753	      0.00000000	      1.26703679	      0.71149010	    -15.81600479	      0.61002641	      9.55300285	      8.38242895	      0.00000000	      3.57543527	     -0.02860150	      1.27787966	     -5.38694159	     -7.63449410	     14.02986410	     23.37807277	     69.76340054	      0.73004426	     -8.27929704	     32.41159652	     20.59212571	     62.90819517
      0.06666670	     -1.73574942	      1.15629456	     -0.38538250	     -0.08785125	      1.27089397	     -0.04922890	     -0.42503174	      1.97153214	    -21.35615238	      0.00000000	    -11.72639685	     -4.23285761	      0.00000000	      1.62070029	      0.77003536	    -16.01933789	      0.15536026	      9.21161820	      9.07273603	      0.00000000	      3.65036706	     -0.12541548	      1.47402112	     -5.79954469	     -7.23233635	     12.34319144	     23.43551626	     69.93768158	      1.27698648	     -8.10658922	     32.28453371	     20.24410531	     63.42575727
      0.08333330	     -1.62291171	      1.22716157	     -0.63328031	     -0.08362051	      1.26598567	     -0.04998109	     -0.84023655	      1.78175255	    -23.67639183	      0.00000000	    -13.98368169	     -5.90116559	      0.00000000	      1.63110202	      0.89782151	    -16.13586665	      0.09729699	     10.29524353	      9.20661349	      0.00000000	      3.86712344	     -0.10462625	      1.84625104	     -6.01727992	     -7.00650722	     11.67468643	     23.35865532	     70.07941023	      1.34890766	     -7.88086356	     31.96093875	     20.25829369	     63.59414304
      0.10000000	     -1.73807337	      1.29056653	     -0.77995235	     -0.08416486	      1.26665358	     -0.04998843	     -0.83058043	      1.63583645	    -26.48469687	      0.00000000	    -18.36875572	     -8.68938829	      0.00000000	      1.96096219	      0.94384829	    -16.18342623	      0.12266869	     11.01448799	      9.90796329	      0.00000000	      3.92671254	     -0.18606605	      2.29827439	     -6.21951982	     -6.72465853	     10.59860220	     23.35907963	     70.33306199	      1.32581381	     -7.67379708	     31.17320851	     20.28645491	     63.82561944
      0.11666670	     -1.63235410	      1.38223440	     -1.29134882	     -0.08269497	      1.26611207	     -0.04954267	     -0.81658038	      1.47494719	    -26.51342339	      0.20280459	    -18.75111730	     -9.31514220	      0.00000000	      1.87824318	      1.01962055	    -15.93087960	      0.00000000	     11.42338154	     10.09170559	      0.00000000	      4.02521279	     -0.16027312	      2.41362651	     -6.25862998	     -6.68155720	     10.34469166	     23.37375422	     70.40294774	      0.99801332	     -7.60389705	     30.98094625	     20.25338555	     63.88771724
      0.13333330	     -1.89706405	      1.43506809	     -1.16878536	     -0.08460330	      1.26560309	     -0.04931791	     -0.55344439	      1.46961527	    -27.74190969	      0.00000000	    -22.90205886	    -13.39689977	      0.00000000	      2.35859390	      1.00524209	    -15.99695532	      0.24324781	     12.75413746	     10.92196030	      0.00000000	      4.17015410	     -0.35193215	      2.71333380	     -6.54227174	     -6.37182482	      8.93776940	     23.34829833	     70.92681811	      1.14445498	     -7.53176681	     29.34234103	     20.71737177	     64.29314197
      0.15000000	     -2.06369614	      1.61999254	     -1.59423336	     -0.08293103	      1.26432364	     -0.04834582	      0.09633348	      1.39221761	    -22.97952649	      0.07446227	    -19.62807120	    -13.86805364	      0.00000000	      2.34468889	      1.16990182	    -16.34284142	      0.18973338	     12.76609005	     10.73428309	      0.00000000	      4.29240497	     -0.33319616	      2.56688875	     -6.40014572	     -6.15093527	      8.08485941	     23.68138119	     71.38177733	      0.72265173	     -7.65666214	     28.39590225	     20.98158756	     64.71695882
      0.16666670	     -2.11520823	      1.60230003	     -1.45708171	     -0.08185279	      1.26621088	     -0.04827354	      0.24424537	      1.43684890	    -21.89769616	      0.00000000	    -15.53556552	     -9.97542649	      0.00000000	      2.28385449	      1.11499224	    -16.03212412	      0.13557695	     12.75102053	     11.30420939	      0.00000000	      4.21242888	     -0.48009360	      2.64193399	     -6.86741837	     -5.41269517	      3.94189150	     24.41456017	     75.41768429	     -0.13169409	     -7.44435986	     22.44053124	     22.68036020	     68.63271656
      0.18333330	     -2.20651871	      1.66582413	     -1.44620315	     -0.08188577	      1.26565289	     -0.04840298	      0.37804753	      1.36634059	    -20.05943065	      0.00000000	    -14.22373028	    -10.27037366	      0.00000000	      2.23674351	      1.18193137	    -15.97557970	      0.23649130	     12.59486986	     11.21447138	      0.00000000	      4.03424300	     -0.50537562	      2.36806976	     -6.63862904	     -5.52667314	      3.93875770	     24.50904326	     75.91257722	     -0.17996434	     -7.50121619	     22.36781330	     22.57916487	     69.19470473
      0.20000000	     -2.28759524	      1.66238700	     -1.68474186	     -0.08422743	      1.26474434	     -0.04804702	      0.54115849	      1.34104208	    -19.45719145	      0.00000000	    -13.65339275	    -10.29225051	      0.00000000	      2.23206094	      1.20148212	    -15.02933340	      0.11668249	     12.90136028	     11.80351423	      0.00000000	      3.84225510	     -0.48137234	      2.45231544	     -6.39439605	     -5.63948148	      3.95874354	     24.58819127	     76.11109643	     -0.08312144	     -7.44730171	     22.32511344	     22.68134993	     69.41959271
